<?xml version="1.0" standalone="no"?>
<!DOCTYPE svg PUBLIC "-//W3C//DTD SVG 20010904//EN"
 "http://www.w3.org/TR/2001/REC-SVG-20010904/DTD/svg10.dtd">
<svg version="1.0" xmlns="http://www.w3.org/2000/svg"
 width="150.000000pt" height="150.000000pt" viewBox="0 0 150.000000 150.000000"
 preserveAspectRatio="xMidYMid meet">
<metadata>
Created by potrace 1.14, written by Peter Selinger 2001-2017
</metadata>
<g transform="translate(0.000000,150.000000) scale(0.100000,-0.100000)"
fill="#000000" stroke="none">
<path d="M650 1204 c-88 -86 -100 -94 -100 -72 0 29 -17 39 -49 31 -18 -5 -21
-13 -21 -67 l0 -63 -71 -70 -71 -70 -47 16 c-25 9 -52 16 -58 15 -7 -1 -22 -2
-32 -3 -11 0 -22 -9 -25 -18 -3 -10 -16 -29 -28 -43 -55 -61 -149 -192 -146
-202 2 -6 39 36 83 93 43 57 87 114 98 126 l19 22 44 -57 c23 -31 55 -72 71
-91 l29 -33 116 153 c249 331 298 394 305 396 5 1 36 -35 69 -80 125 -167 328
-433 345 -450 16 -18 18 -17 40 15 13 18 31 42 41 52 10 11 28 35 41 53 12 18
27 33 33 33 5 0 45 -46 87 -101 42 -56 77 -94 77 -85 0 10 -6 23 -12 30 -7 8
-20 24 -28 36 -8 12 -19 28 -25 34 -5 6 -30 37 -54 69 -28 37 -47 54 -51 46
-5 -7 -9 -7 -11 -1 -3 7 -26 5 -65 -6 l-61 -16 -195 197 c-107 108 -200 197
-206 197 -6 0 -17 3 -26 6 -10 4 -48 -26 -116 -92z"/>
<path d="M668 1098 c-51 -68 -143 -189 -203 -270 -61 -81 -114 -147 -120 -147
-5 0 -39 38 -75 84 -36 46 -68 84 -71 85 -3 0 -49 -57 -103 -126 -86 -113 -96
-131 -96 -168 1 -40 1 -41 18 -20 31 38 71 88 126 162 l54 73 122 -156 c85
-108 127 -155 137 -151 8 3 21 6 29 6 10 0 -2 22 -33 60 -26 34 -54 69 -61 80
-13 17 -2 35 110 182 68 90 146 192 173 228 26 36 59 77 73 92 l24 26 141
-186 c78 -103 165 -218 194 -256 l53 -68 -32 -42 c-18 -22 -45 -56 -61 -75
-31 -36 -31 -40 5 -46 19 -4 32 6 68 53 24 31 79 101 121 155 l77 97 81 -106
81 -107 0 43 c0 38 -9 55 -77 146 -43 57 -81 102 -85 101 -5 -1 -39 -41 -77
-89 l-68 -88 -209 275 c-115 151 -212 275 -215 275 -4 0 -49 -55 -101 -122z"/>
<path d="M755 802 c-11 -2 -25 -12 -32 -21 -24 -32 -15 -39 47 -38 63 1 74 12
43 39 -26 22 -36 25 -58 20z"/>
<path d="M710 701 c0 -16 6 -31 13 -34 23 -8 37 5 37 34 0 24 -4 29 -25 29
-21 0 -25 -5 -25 -29z"/>
<path d="M778 700 c-4 -27 -2 -30 24 -30 24 0 28 4 28 30 0 25 -4 30 -24 30
-19 0 -25 -6 -28 -30z"/>
<path d="M710 621 c0 -20 6 -30 19 -34 25 -6 31 0 31 35 0 23 -4 28 -25 28
-21 0 -25 -5 -25 -29z"/>
<path d="M779 648 c0 -2 -2 -15 -3 -30 -1 -24 2 -28 26 -28 24 0 28 4 28 30 0
25 -4 30 -25 30 -14 0 -25 -1 -26 -2z"/>
<path d="M157 536 c-6 -17 3 -36 19 -36 8 0 14 10 14 23 0 24 -26 34 -33 13z"/>
<path d="M210 535 c-15 -18 -5 -35 20 -35 13 0 17 5 13 20 -7 27 -18 33 -33
15z"/>
<path d="M1304 542 c-16 -11 -10 -36 9 -40 11 -2 17 3 17 17 0 23 -11 33 -26
23z"/>
<path d="M1352 538 c-18 -18 -14 -38 6 -38 11 0 18 8 19 20 2 24 -10 33 -25
18z"/>
<path d="M158 478 c-7 -19 2 -38 18 -38 8 0 14 10 14 25 0 26 -24 35 -32 13z"/>
<path d="M208 484 c-3 -3 -4 -14 -1 -25 8 -28 33 -24 33 6 0 23 -18 34 -32 19z"/>
<path d="M1294 467 c1 -31 36 -36 36 -5 0 16 -6 24 -19 25 -13 1 -18 -5 -17
-20z"/>
<path d="M1343 473 c-7 -18 12 -38 26 -29 6 4 11 15 11 25 0 21 -30 24 -37 4z"/>
<path d="M647 404 c-1 -1 -40 -5 -87 -8 -47 -4 -107 -9 -135 -12 -70 -7 -277
-50 -358 -74 l-67 -21 0 -75 0 -74 42 21 c43 22 211 85 250 94 13 2 50 11 83
20 33 8 78 17 100 21 22 3 61 10 88 15 190 35 598 31 835 -10 99 -17 102 -17
102 1 0 10 -7 18 -15 18 -22 0 -20 0 -72 15 -27 7 -68 16 -93 20 -25 4 -52 9
-61 10 -9 2 -40 6 -69 10 -29 4 -61 8 -70 10 -50 10 -464 26 -473 19z"/>
<path d="M927 303 c-1 -1 -43 -4 -92 -7 -50 -3 -101 -8 -115 -10 -14 -3 -45
-7 -70 -10 -64 -9 -97 -15 -165 -32 -33 -8 -69 -16 -80 -18 -37 -8 -200 -68
-250 -93 -73 -36 -77 -46 -8 -17 34 13 104 35 158 50 96 25 108 28 175 40 19
4 44 8 55 10 18 4 59 10 125 19 197 27 587 22 808 -10 27 -4 32 -2 32 15 0 11
-1 20 -3 20 -2 0 -28 5 -58 10 -68 13 -119 18 -234 26 -88 6 -275 11 -278 7z"/>
</g>
</svg>
